<svg xmlns:dc="http://purl.org/dc/elements/1.1/" xmlns:cc="http://creativecommons.org/ns#" xmlns:rdf="http://www.w3.org/1999/02/22-rdf-syntax-ns#" xmlns:svg="http://www.w3.org/2000/svg" xmlns="http://www.w3.org/2000/svg" id="svg2" version="1.1" viewBox="53.07 329.97 490.12 184.97">
  <metadata id="metadata60">
    <rdf:RDF>
      <cc:Work rdf:about="">
        <dc:format>image/svg+xml</dc:format>
        <dc:type rdf:resource="http://purl.org/dc/dcmitype/StillImage"/>
      </cc:Work>
    </rdf:RDF>
  </metadata>
  <defs id="defs58"/>
  <path id="path4" style="fill:#231f20;fill-rule:evenodd" d="m 293.9603,331.363 c 2.6398,-0.593 5.2879,-1.1984 7.9977,-1.392 -0.8978,1.2397 -2.3227,1.8985 -3.5911,2.681 -29.359,17.1978 -57.7212,36.0635 -85.2557,56.0493 -16.0899,11.6381 -31.8175,23.7663 -47.438,36.018 -1.8656,1.3343 -3.6611,2.7757 -5.3742,4.3035 -2.0675,1.6968 -4.0936,3.4635 -6.2763,5.0119 -0.7289,0.4654 -1.3466,1.0708 -1.9684,1.6597 -7.4912,6.2021 -15.0192,12.3547 -22.428,18.6514 10.0815,-4.6 20.1958,-9.1836 30.5821,-13.0712 0.1852,-0.0783 0.56,-0.2347 0.7453,-0.3129 2.5616,-1.112 5.1766,-2.0963 7.8082,-3.0228 2.0756,-0.6219 4.1059,-1.3756 6.095,-2.2322 19.7222,-7.2851 39.9345,-13.2072 60.328,-18.3056 37.2659,-9.1135 75.3348,-15.1097 113.6468,-17.3048 4.6454,-0.247 9.2948,-0.4571 13.9484,-0.5435 0.7537,-0.1277 1.7791,0.3541 1.5939,1.2602 -0.2553,0.7742 -1.1615,0.8195 -1.8286,0.9348 -57.6306,7.487 -114.8123,19.9899 -169.3871,40.1692 -3.5622,1.3014 -7.0751,2.7469 -10.6538,4.0112 -2.0303,0.6754 -4.0236,1.4784 -5.9591,2.3968 -2.541,1.1037 -5.0984,2.1785 -7.6847,3.171 -0.523,0.1978 -1.0378,0.416 -1.5443,0.6548 -10.9875,4.8472 -21.9214,9.8262 -32.5835,15.361 -0.9184,-0.6836 -1.8449,-1.3507 -2.7757,-2.0096 -5.6254,-4.1018 -10.9216,-8.636 -15.917,-13.4832 9.0643,-8.0264 18.178,-16.0117 27.5346,-23.6963 0.9883,-0.7 1.9109,-1.4949 2.7674,-2.3514 1.948,-1.705 3.9371,-3.3688 5.9838,-4.9543 1.8327,-1.3301 3.5623,-2.7962 5.259,-4.2912 6.548,-5.5267 13.3389,-10.7691 20.0846,-16.0611 11.3499,-8.7883 22.8891,-17.3378 34.7208,-25.4672 6.2475,-4.2253 12.4824,-8.4959 19.0387,-12.2352 -1.3261,0.14 -2.5534,0.6877 -3.8093,1.0954 -13.1702,4.6166 -26.1797,9.6778 -39.1397,14.8503 -15.3653,6.2063 -30.6604,12.6307 -45.5231,19.9694 -0.6836,0.4571 -1.9891,0.0741 -1.6143,-0.9266 0.7207,-1.0296 1.9726,-1.5197 2.9446,-2.2815 25.6648,-17.2101 53.6317,-30.7179 82.2411,-42.2614 16.4605,-6.5685 33.1889,-12.4905 50.1972,-17.4859 5.7037,-1.668 11.4403,-3.237 17.2347,-4.559 z M 221.1788,445.78 c 14.282,15.7893 28.4776,31.6568 42.8008,47.4051 0.0494,-14.7764 0.004,-29.5567 0.0205,-44.3329 2.5864,-0.008 5.1685,0.008 7.7548,-0.008 -0.008,22.0203 0.0658,44.0446 0.004,66.0648 -14.3027,-15.5958 -28.5806,-31.2163 -42.9038,-46.7956 -0.0288,14.5044 -0.004,29.0088 -0.0124,43.5134 -2.615,-0.008 -5.2302,0 -7.8493,-0.004 0.0864,-21.946 0.0823,-43.8963 0.1853,-65.8423 z m 130.305,3.0722 c 15.5876,-0.0165 31.171,0.0329 46.7544,-0.0289 -12.7542,18.462 -25.5661,36.8911 -38.3449,55.3408 11.3828,0.004 22.7656,-0.008 34.1484,0.004 0,2.4833 -0.0124,4.9667 0,7.4498 -14.5868,0.0124 -29.1736,0 -43.7604,0.008 0,-2.2117 -0.0165,-4.419 0,-6.6221 -0.0823,-0.589 0.4201,-0.9927 0.6754,-1.4581 10.8392,-15.781 21.6579,-31.5744 32.4806,-47.3678 -10.6498,0.0164 -21.2996,0.008 -31.9452,0.004 -0.004,-2.4463 -0.004,-4.8883 -0.008,-7.3304 z m -24.3963,7.281 c 2.5738,-0.0124 5.1477,0.0165 7.7217,-0.008 0.0534,3.3111 0.0122,6.6263 0.0246,9.9374 3.5911,0.0246 7.1823,-0.0288 10.7733,0.0288 -0.0247,2.4421 -0.0164,4.8883 -0.004,7.3345 -3.587,0.0124 -7.174,0.0124 -10.761,0 -0.0207,6.5563 0.004,13.1124 -0.008,19.6689 -0.0988,3.1916 0.3007,6.8362 2.8664,9.0682 2.6727,2.3432 6.4532,2.1827 9.7807,2.1043 -0.0165,2.434 0.0124,4.872 -0.0124,7.3099 -4.8017,0.3706 -10.0195,0.1937 -14.072,-2.7344 -4.3941,-3.0146 -6.2885,-8.5248 -6.3009,-13.6726 -0.0205,-13.0094 -0.004,-26.0231 -0.008,-39.0367 z m -42.7927,13.6231 c 4.7154,-4.25 11.2264,-6.4491 17.5561,-5.8273 6.2967,0.5519 12.2723,3.8382 16.1846,8.7925 1.9891,2.4544 3.4306,5.3124 4.4272,8.2982 -11.6217,6.0579 -23.2393,12.1323 -34.8568,18.1943 2.9652,3.8218 7.7299,6.1032 12.5566,6.1361 3.6487,0.004 7.4169,-0.9223 10.3655,-3.1504 1.9932,-1.4825 3.5211,-3.5169 4.6206,-5.7283 1.7626,-0.1814 3.7064,0.354 5.3538,-0.3088 0.8236,0.4117 1.7625,0.2964 2.6604,0.3088 -1.7874,5.5842 -5.568,10.6538 -10.8722,13.3141 -6.4821,3.2905 -14.4179,3.8135 -21.1925,1.0791 -4.0482,-1.6433 -7.6433,-4.4065 -10.2254,-7.9359 -3.7271,-5.0119 -5.3661,-11.4857 -4.6167,-17.6755 0.6796,-5.9138 3.5789,-11.5475 8.0388,-15.4969 z m 1.2561,10.7115 c -1.7955,3.793 -2.0715,8.2202 -1.0254,12.2642 9.3442,-4.8677 18.6968,-9.7191 28.0245,-14.6156 -3.0804,-4.2954 -8.2158,-7.2564 -13.5778,-7.0093 -5.7655,0.2965 -11.0163,4.1841 -13.4213,9.3607 z m 115.2982,-11.9182 c 5.1478,-3.9493 12.0088,-5.5719 18.3755,-4.2911 8.6278,1.5772 15.8265,8.4341 18.2851,16.7859 -11.6135,6.0374 -23.2104,12.1158 -34.8157,18.1738 2.8664,3.6446 7.3429,5.922 11.9718,6.1156 3.5129,0.1235 7.1328,-0.6383 10.1144,-2.5533 2.3597,-1.5198 4.2129,-3.7558 5.4278,-6.2764 2.681,-0.0904 5.3661,-0.0121 8.0511,-0.0411 -1.6761,5.119 -4.9335,9.8509 -9.6283,12.6224 -4.1718,2.5287 -9.1219,3.6034 -13.9691,3.5294 -6.7333,-0.1319 -13.3637,-3.237 -17.692,-8.4095 -4.5259,-5.2919 -6.5068,-12.5689 -5.5431,-19.4339 0.836,-6.3709 4.2994,-12.3424 9.4225,-16.2218 z m -0.5106,12.6101 c -1.5444,3.6281 -1.6638,7.7424 -0.7413,11.5475 9.3937,-4.7812 18.705,-9.719 28.0534,-14.5868 -3.0311,-4.2458 -8.0759,-7.1698 -13.3595,-7.0257 -6.1033,0.2265 -11.6753,4.4725 -13.9526,10.065 z m 55.1843,-16.4029 c 3.0105,-0.8649 6.1815,-0.9719 9.2866,-0.6713 0.0824,2.4009 0.008,4.8018 0.0412,7.2028 -3.8382,-0.3171 -8.08,0.1565 -11.1027,2.7716 -2.7633,2.3268 -3.8176,6.0744 -3.797,9.5748 -0.008,9.3156 -0.0206,18.635 0.004,27.9506 -2.5862,0.0864 -5.1683,0.0122 -7.7505,0.0412 -0.0246,-7.8331 -0.004,-15.6699 -0.0123,-23.5029 -0.0453,-4.3611 -0.1565,-8.8871 1.5937,-12.9847 1.9603,-5.0861 6.4821,-8.9984 11.737,-10.3821 z m 26.5173,-0.6054 c 5.6956,-0.9143 11.7453,0.2759 16.5759,3.4593 4.8266,3.0969 8.3683,8.0306 9.9744,13.5161 1.6391,5.6172 1.3631,11.8151 -0.9595,17.206 -2.0015,4.7278 -5.5514,8.8006 -10.0156,11.3457 -4.979,2.8992 -11.0451,3.7889 -16.6706,2.6233 -5.5679,-1.1244 -10.6457,-4.4024 -14.0309,-8.953 -7.0956,-9.2126 -6.3874,-23.3669 1.5526,-31.8546 3.5211,-3.8917 8.3889,-6.5357 13.5737,-7.3428 z m 0.7619,7.3633 c -7.1163,1.4661 -12.3093,8.2613 -12.8036,15.3653 -0.5559,5.8108 1.9768,11.8564 6.6839,15.3527 2.9775,2.265 6.8033,3.41 10.5386,3.0312 4.2088,-0.3625 8.1582,-2.6236 10.7691,-5.9221 3.167,-3.9042 4.4065,-9.2331 3.4923,-14.1586 -0.8649,-4.9748 -3.937,-9.5996 -8.3805,-12.0664 -3.0929,-1.7503 -6.8198,-2.3474 -10.2998,-1.6021 z M 101.4905,465.288 c 4.0771,4.563 8.36,8.9366 12.8037,13.1454 -19.7594,10.905 -38.9338,22.8603 -57.4659,35.738 -0.9472,0.7618 -2.5369,0.9843 -3.3481,-0.0864 -0.8524,-1.0955 -0.1895,-2.5905 0.7124,-3.4181 15.1963,-15.7111 31.0433,-30.7757 47.2979,-45.3789 z"/>
  <path id="path6" style="fill:#f37350;fill-rule:evenodd" d="m 66.9138,384.1135 c 3.1135,-4.4683 8.529,-6.725 13.7961,-7.3099 9.2083,-0.8607 18.3632,1.5197 26.8591,4.9008 3.9741,1.709 8.0059,3.3934 11.6753,5.7036 -1.668,0.136 -3.274,-0.4405 -4.9213,-0.5682 -0.0453,-0.3666 -0.0907,-0.7289 -0.1318,-1.0914 -1.7132,-0.1976 -2.9158,-1.8161 -4.6577,-1.705 -0.2348,0.3831 -0.4614,0.7661 -0.6919,1.145 -0.4777,-0.2554 -0.9513,-0.5107 -1.4291,-0.766 -0.2182,0.4077 -0.5847,0.7989 -0.4901,1.3014 0.1813,1.8532 0.0371,3.7228 0.2019,5.576 0.3706,0.5971 1.0378,0.9101 1.5855,1.3179 0.5189,-0.2842 1.0378,-0.5601 1.5567,-0.8361 0.9389,0.659 1.7255,1.9027 3.0145,1.7503 0.2677,0 0.8072,-0.004 1.079,-0.004 0.1153,0.1565 0.3418,0.4695 0.4531,0.6259 -0.7825,0.066 -1.5691,0.1318 -2.3516,0.1895 2.7263,1.2808 5.8108,1.8779 8.1706,3.8629 -0.2183,0.0577 -0.6507,0.1688 -0.8689,0.2265 -9.4638,-4.6 -19.7882,-8.1376 -30.4421,-7.7794 -5.0943,-0.008 -10.5013,1.7133 -13.722,5.8604 -3.8094,4.39 -4.5877,10.5096 -4.147,16.1104 -0.0288,0.9966 -0.0164,2.0427 -0.4982,2.9528 -0.6262,-0.7001 -1.2932,-1.3632 -2.0016,-1.9808 -2.5451,-3.8259 -3.9452,-8.3271 -4.81,-12.8118 -1.0297,-5.6215 -0.696,-11.9018 2.7715,-16.6707 z"/>
  <path id="path8" style="fill:#f26a46;fill-rule:evenodd" d="m 109.5335,384.0434 c 1.7419,-0.1111 2.9445,1.5074 4.6577,1.705 0.0411,0.3625 0.0865,0.7248 0.1318,1.0914 1.6473,0.1277 3.2533,0.7042 4.9213,0.5682 6.7085,3.4141 12.9148,7.8206 18.9232,12.3589 2.928,2.3104 5.9055,4.5836 8.6647,7.0958 -0.1935,0.0658 -0.5723,0.1976 -0.7659,0.2594 -0.8278,-0.7372 -1.7297,-1.4044 -2.788,-1.775 -0.1566,-0.3459 -0.3089,-0.6877 -0.4612,-1.0295 -0.6137,0.0617 -1.2273,0.1277 -1.841,0.1935 0.1689,-0.4159 0.3418,-0.8278 0.5107,-1.2396 -0.5189,-0.2389 -1.0213,-0.5559 -1.5896,-0.6713 -1.2479,0.659 -2.0839,1.8862 -3.0764,2.8622 1.1408,1.5238 2.0015,3.2946 3.4388,4.5713 0.5106,0.0864 1.0295,0.0453 1.5484,0.0411 -0.008,0.3666 -0.008,0.7289 -0.0123,1.0996 0.8277,0.5024 1.5937,1.1037 2.2815,1.7873 -0.1936,0.1195 -0.5889,0.3583 -0.7866,0.4819 -7.3222,-5.7655 -15.1963,-10.8269 -23.5274,-15.011 0.2182,-0.0577 0.6506,-0.1688 0.8689,-0.2265 -2.3598,-1.985 -5.4443,-2.5821 -8.1706,-3.8629 0.7825,-0.0577 1.5691,-0.1235 2.3516,-0.1895 -0.1113,-0.1564 -0.3378,-0.4694 -0.4531,-0.6259 -0.2718,0 -0.8113,0.004 -1.079,0.004 -1.289,0.1524 -2.0756,-1.0913 -3.0145,-1.7503 -0.5189,0.276 -1.0378,0.5519 -1.5567,0.8361 -0.5477,-0.4078 -1.2149,-0.7208 -1.5855,-1.3179 -0.1648,-1.8532 -0.0206,-3.7228 -0.2019,-5.576 -0.0946,-0.5025 0.2719,-0.8937 0.4901,-1.3014 0.4778,0.2553 0.9514,0.5106 1.4291,0.766 0.2305,-0.3789 0.4571,-0.7619 0.6919,-1.145 z"/>
  <path id="path10" style="fill:#f3714d;fill-rule:evenodd" d="m 83.4485,403.9881 c 2.8622,-2.7551 6.9599,-3.76 10.8351,-3.8053 6.6797,-0.2512 13.1124,2.0344 19.2074,4.5302 2.6028,1.1818 5.2797,2.2649 7.7176,3.7763 -0.9513,0.4325 -1.9232,-0.1812 -2.8993,-0.1729 0.1813,0.4036 0.3666,0.8071 0.5561,1.2107 -0.9678,-0.2677 -1.705,-0.8896 -2.0344,-1.8449 -0.3542,-1.1655 -1.7379,-1.0214 -2.7058,-1.1202 0.3337,0.3295 0.6714,0.6589 1.009,0.9843 -0.0453,0.1235 -0.1441,0.3664 -0.1893,0.4901 -0.8979,-0.4943 -1.9028,-0.5931 -2.8993,-0.4366 0.0412,0.1977 0.1235,0.5972 0.1688,0.7948 0.9307,0.1812 1.915,0.3006 2.7016,0.8855 -0.7455,-0.0372 -1.4825,-0.1154 -2.2238,-0.1936 -0.0124,0.3583 -0.0248,0.7206 -0.0331,1.0872 -0.5106,0.0989 -1.0171,0.1935 -1.5236,0.28 -4.5054,-1.2148 -9.332,-2.2815 -13.9485,-1.0418 -4.1554,1.0254 -7.7341,4.427 -8.5824,8.6771 -0.8526,3.3398 -0.0412,6.7621 0.5847,10.0607 -0.63,0.0166 -1.256,0.0372 -1.8861,0.0577 -0.3624,-0.803 -0.5024,-1.6719 -0.5148,-2.5492 0.3172,0.1813 0.6342,0.3666 0.9555,0.5477 0.0246,-0.8936 -0.2224,-1.6678 -1.1737,-1.8737 0.2265,-0.8566 0.4489,-1.7133 0.6177,-2.5862 -0.7413,0.3747 -0.8731,1.2683 -1.2355,1.9396 -0.42,-1.2478 -0.3871,-2.5738 -0.4242,-3.8711 -0.6177,-0.004 -1.2312,-0.008 -1.849,-0.0206 -0.0578,0.9101 -0.103,1.8244 -0.1195,2.7387 -0.3831,-0.5025 -0.8194,-0.9637 -1.396,-1.2397 0.0412,0.5313 0.0906,1.0626 0.1442,1.5937 -0.1936,-0.1111 -0.5766,-0.3418 -0.7701,-0.457 0.0412,1.4867 -0.2677,2.9363 -0.6507,4.3653 -0.6961,-1.9809 -1.3221,-4.04 -1.5732,-6.1155 0.2223,-1.248 0.243,-2.5163 0.1317,-3.7765 -0.1564,-1.8038 0.276,-3.6282 -0.1401,-5.4114 0.2966,-2.891 2.0469,-5.5307 4.143,-7.5034 z"/>
  <path id="path12" style="fill:#f05e3c;fill-rule:evenodd" d="m 136.8208,405.4624 c 0.9925,-0.976 1.8285,-2.2032 3.0764,-2.8622 0.5683,0.1154 1.0707,0.4324 1.5896,0.6713 -0.1689,0.4118 -0.3418,0.8237 -0.5107,1.2396 0.6137,-0.0658 1.2273,-0.1318 1.841,-0.1935 0.1523,0.3418 0.3046,0.6836 0.4612,1.0295 1.0583,0.3706 1.9602,1.0378 2.788,1.775 0.1936,-0.0618 0.5724,-0.1936 0.7659,-0.2594 3.4594,2.788 6.684,5.8643 9.9744,8.8542 0.3213,0.2882 0.5807,0.6218 0.7784,1.0089 -1.6967,1.495 -3.4263,2.9611 -5.259,4.2912 -2.9651,-2.5781 -5.9426,-5.1478 -9.0354,-7.5734 0.1977,-0.1236 0.593,-0.3624 0.7866,-0.4819 -0.6878,-0.6836 -1.4538,-1.2849 -2.2815,-1.7873 0.004,-0.3707 0.004,-0.733 0.0123,-1.0996 -0.5189,0.004 -1.0378,0.0453 -1.5484,-0.0411 -1.4373,-1.2767 -2.298,-3.0475 -3.4388,-4.5713 z"/>
  <path id="path14" style="fill:#f06643;fill-rule:evenodd" d="m 114.1252,406.562 c 0.9679,0.0988 2.3516,-0.0453 2.7058,1.1202 0.3294,0.9553 1.0666,1.5772 2.0344,1.8449 -0.1895,-0.4036 -0.3748,-0.8071 -0.5561,-1.2107 0.9761,-0.008 1.948,0.6054 2.8993,0.1729 l 0.1235,-0.0329 c 8.986,4.8266 17.2802,10.8844 25.0101,17.5149 -0.8565,0.8565 -1.7791,1.6514 -2.7674,2.3514 -9.8797,-7.4581 -20.5665,-14.1213 -32.4393,-17.869 0.5065,-0.0865 1.013,-0.1811 1.5236,-0.28 0.008,-0.3666 0.0207,-0.7289 0.0331,-1.0872 0.7413,0.0782 1.4783,0.1564 2.2238,0.1936 -0.7866,-0.5849 -1.7709,-0.7043 -2.7016,-0.8855 -0.0453,-0.1976 -0.1276,-0.5971 -0.1688,-0.7948 0.9965,-0.1565 2.0014,-0.0577 2.8993,0.4366 0.0452,-0.1237 0.144,-0.3666 0.1893,-0.4901 -0.3376,-0.3254 -0.6753,-0.6548 -1.009,-0.9843 z"/>
  <path id="path16" style="fill:#da8064;fill-rule:evenodd" d="m 78.8279,413.9831 c 0.107,-0.8319 -0.0577,-1.7832 0.4776,-2.4916 0.4161,1.7832 -0.0163,3.6076 0.1401,5.4114 0.1113,1.2602 0.0906,2.5285 -0.1317,3.7765 -0.6549,-2.154 -0.5395,-4.4643 -0.486,-6.6963 z"/>
  <path id="path18" style="fill:#db937c;fill-rule:evenodd" d="m 70.9539,415.5768 c 0.4818,-0.9101 0.4694,-1.9562 0.4982,-2.9528 0.3707,1.6885 0.3088,3.4306 0.5189,5.1437 -1.2108,-1.2149 -2.3597,-2.5738 -3.0187,-4.1717 0.7084,0.6176 1.3754,1.2807 2.0016,1.9808 z"/>
  <path id="path20" style="fill:#f16743;fill-rule:evenodd" d="m 83.6792,419.7939 c 0.6178,0.0124 1.2313,0.0165 1.849,0.0206 0.0371,1.2973 0.0042,2.6233 0.4242,3.8711 0.3624,-0.6713 0.4942,-1.5649 1.2355,-1.9396 -0.1688,0.8729 -0.3912,1.7296 -0.6177,2.5862 0.9513,0.2059 1.1983,0.9801 1.1737,1.8737 -0.3213,-0.1811 -0.6383,-0.3664 -0.9555,-0.5477 0.0124,0.8773 0.1524,1.7462 0.5148,2.5492 0.6301,-0.0205 1.2561,-0.0411 1.8861,-0.0577 l 0.1647,-0.004 c 2.298,9.0313 7.5899,16.9384 13.2196,24.2235 0.0618,0.1524 0.1854,0.4531 0.2471,0.6013 -0.5972,0.0947 -1.1902,0.1936 -1.7832,0.2923 -0.0618,-0.457 -0.1071,-0.9183 -0.1276,-1.3754 -1.4744,0.9637 -2.6357,2.3103 -3.653,3.7311 -6.795,-8.7471 -12.7994,-18.2932 -16.3698,-28.8235 0.383,-1.429 0.6919,-2.8786 0.6507,-4.3653 0.1935,0.1152 0.5765,0.3459 0.7701,0.457 -0.0536,-0.5311 -0.103,-1.0624 -0.1442,-1.5937 0.5766,0.276 1.0129,0.7372 1.396,1.2397 0.0165,-0.9143 0.0617,-1.8286 0.1195,-2.7387 z"/>
  <path id="path22" style="fill:#ee5334;fill-rule:evenodd" d="m 160.299,429.0228 c 1.7131,-1.5278 3.5086,-2.9692 5.3742,-4.3035 2.8211,2.7633 5.3372,5.8273 7.8123,8.8995 0.4943,0.6671 1.1326,1.2684 1.3714,2.0879 -1.9891,0.8566 -4.0194,1.6103 -6.095,2.2322 -2.4957,-3.1587 -5.3085,-6.0415 -8.1088,-8.9202 l -0.3541,0.004 z"/>
  <path id="path24" style="fill:#fefefd;fill-rule:evenodd" d="m 154.0227,434.0347 c 2.1827,-1.5484 4.2088,-3.3151 6.2763,-5.0119 l 0.3541,-0.004 c 2.8003,2.8787 5.6131,5.7615 8.1088,8.9202 -2.6316,0.9265 -5.2466,1.9108 -7.8082,3.0228 -1.8326,-2.5534 -4.1223,-4.7196 -6.2597,-7.0093 -0.1689,0.0205 -0.5024,0.0618 -0.6713,0.0823 z"/>
  <path id="path26" style="fill:#e65938;fill-rule:evenodd" d="m 152.0543,435.6944 c 0.6218,-0.5889 1.2395,-1.1943 1.9684,-1.6597 0.1689,-0.0205 0.5024,-0.0618 0.6713,-0.0823 2.1374,2.2897 4.4271,4.4559 6.2597,7.0093 -0.1853,0.0782 -0.5601,0.2346 -0.7453,0.3129 -0.5684,0.1112 -1.1326,0.21 -1.7009,0.3006 -1.9232,-2.0838 -3.9576,-4.0646 -6.0703,-5.9591 l -0.3829,0.0783 z"/>
  <path id="path28" style="fill:#cf8e7c;fill-rule:evenodd" d="m 100.8687,434.5989 c 1.5196,1.7009 2.7427,3.6488 4.287,5.329 l -0.0617,0.1689 c -0.1936,0.5353 -0.3871,1.0708 -0.5848,1.6102 -1.532,-2.1744 -2.7963,-4.5836 -3.6405,-7.1081 z"/>
  <path id="path30" style="fill:#fefefe;fill-rule:evenodd" d="m 129.6263,454.3458 c 7.4088,-6.2967 14.9368,-12.4493 22.428,-18.6514 l 0.3829,-0.0783 c 2.1127,1.8945 4.1471,3.8753 6.0703,5.9591 0.5683,-0.0906 1.1325,-0.1894 1.7009,-0.3006 -10.3863,3.8876 -20.5006,8.4712 -30.5821,13.0712 z"/>
  <path id="path32" style="fill:#e95d3c;fill-rule:evenodd" d="m 105.094,440.0968 c 3.4099,4.1842 6.9886,8.2446 10.9462,11.9222 4.9954,4.8472 10.2916,9.3814 15.917,13.4832 -1.2272,0.3583 -2.1662,-0.4242 -3.0352,-1.1572 -0.42,0.4941 -1.1736,0.8566 -1.2559,1.5484 0.2388,0.5436 0.8688,0.7619 1.3095,1.1243 1.532,0.9019 2.5616,2.4009 3.9824,3.4428 3.8258,2.8046 7.5693,5.745 11.6999,8.0923 1.3219,0.7825 2.4997,1.8286 3.9617,2.3762 1.2354,0.3501 2.2651,1.1079 3.2534,1.8986 1.1202,0.906 2.821,1.0172 3.587,2.3598 -1.0543,-0.3295 -2.0303,-0.8484 -3.0063,-1.3468 -10.6457,-5.4525 -20.3235,-12.647 -29.1366,-20.6981 -7.0133,-6.4327 -13.6889,-13.3679 -18.8079,-21.4355 0.1977,-0.5394 0.3912,-1.0749 0.5848,-1.6102 z"/>
  <path id="path34" style="fill:#ee452b;fill-rule:evenodd" d="m 176.5454,448.325 c 1.9355,-0.9184 3.9288,-1.7214 5.9591,-2.3968 3.797,6.132 7.1986,12.573 9.303,19.4958 -0.1153,0.2059 -0.3418,0.6176 -0.453,0.8236 -0.3788,-0.6918 -0.7907,-1.3549 -1.256,-1.985 -0.1153,0.6136 -0.2224,1.2313 -0.3296,1.8491 -0.3706,-0.21 -0.737,-0.416 -1.1077,-0.6178 0.1607,0.593 0.3665,1.1738 0.6012,1.7462 -0.7742,0.173 -1.5114,0.4654 -2.1991,0.8566 -0.0989,-0.2348 -0.3006,-0.7084 -0.3994,-0.9431 -0.8567,0.7495 -0.1977,1.7049 0.2142,2.5121 -0.0907,0.1318 -0.2678,0.3995 -0.3584,0.5354 -0.4448,-0.1442 -0.8854,-0.2801 -1.326,-0.42 -0.0989,1.536 -0.1688,3.0722 -0.1235,4.6124 -0.3213,0.523 -0.5067,1.1119 -0.7043,1.6885 -1.6432,1.5319 -2.611,3.7393 -4.6866,4.7976 -3.1463,1.7174 -6.6591,3.344 -10.3409,2.7963 -0.5847,0.5395 -1.2025,1.0501 -1.746,1.6351 -0.4737,0.7988 -0.8361,1.676 -1.5033,2.3474 0.6507,0.4857 1.3138,0.9511 1.9933,1.4002 -0.5848,0.1893 -1.1696,0.387 -1.7502,0.5806 -3.6983,-1.1326 -7.2564,-2.6646 -10.7528,-4.2995 l -0.1194,-0.1523 c -0.766,-1.3426 -2.4668,-1.4538 -3.587,-2.3598 -0.9883,-0.7907 -2.018,-1.5485 -3.2534,-1.8986 0.7125,-0.9677 1.3343,-2.1702 2.5245,-2.615 1.1901,0.107 2.5615,0.3336 3.2863,1.4003 0.3089,-0.0372 0.6178,-0.0742 0.9308,-0.1072 0.0411,0.1771 0.1152,0.5396 0.1523,0.7207 0.7702,-0.2059 1.5403,-0.4159 2.3104,-0.6259 5.3248,1.9109 11.078,3.521 16.7694,2.4915 3.4469,-0.6383 6.9063,-2.7139 8.1623,-6.1362 1.9439,-4.946 0.8937,-10.4439 -0.5683,-15.3733 -1.3672,-4.3283 -3.2657,-8.496 -5.6419,-12.3589 z"/>
  <path id="path36" style="fill:#c57b6b;fill-rule:evenodd" d="m 167.3164,452.1508 c 0.5065,-0.2388 1.0213,-0.457 1.5443,-0.6548 1.7462,3.167 3.9042,6.1691 5.0283,9.6326 -2.4214,-2.8169 -4.1593,-6.1526 -6.5726,-8.9778 z"/>
  <path id="path38" style="fill:#f05b3a;fill-rule:evenodd" d="m 97.2569,455.6184 c 1.0173,-1.4208 2.1786,-2.7674 3.653,-3.7311 0.0205,0.4571 0.0658,0.9184 0.1276,1.3754 0.593,-0.0987 1.186,-0.1976 1.7832,-0.2923 -0.0617,-0.1482 -0.1853,-0.4489 -0.2471,-0.6013 1.9562,2.1869 3.7064,4.5671 5.8232,6.6139 2.3762,2.3475 4.5054,4.9419 7.001,7.1699 -1.9026,0.4035 -3.0805,2.0303 -4.2789,3.414 1.0666,1.149 1.8739,2.5492 3.1505,3.4923 2.4792,1.9067 4.5177,4.287 6.7168,6.4861 2.1128,2.1292 4.6949,3.7559 6.651,6.0334 -0.3913,-0.0908 -0.7784,-0.1896 -1.1655,-0.2926 -10.6539,-8.9159 -20.5705,-18.779 -29.2148,-29.6677 z"/>
  <path id="path40" style="fill:#221f20;fill-rule:evenodd" d="m 519.9155,456.3062 c 0,-0.6795 0.004,-1.355 0.0165,-2.0262 3.1381,-0.004 6.2763,0.0124 9.4143,-0.0124 0.0123,0.6795 0.0206,1.3591 0.0329,2.0427 -1.1695,0.008 -2.3391,0.008 -3.5046,0.008 -0.0164,3.2863 0.0289,6.5768 -0.0247,9.8673 -0.8072,-0.008 -1.602,-0.0124 -2.3968,-0.0165 -0.0123,-3.2863 0.008,-6.5726 -0.008,-9.859 -1.1819,0.0124 -2.3556,0.008 -3.5293,-0.004 z m 11.774,-2.0179 c 1.1985,-0.0124 2.4052,-0.0124 3.6118,-0.004 0.7536,2.6316 1.3384,5.3126 2.1826,7.9152 0.6836,-2.6397 1.3796,-5.2754 2.0797,-7.911 1.1984,-0.0124 2.3968,-0.0124 3.6034,-0.004 -0.008,3.97 0.0248,7.94 -0.0205,11.91 -0.7495,-0.0166 -1.4907,-0.0248 -2.2279,-0.0371 0,-3.0145 0.037,-6.0333 -0.0165,-9.0478 -0.803,3.0145 -1.5197,6.0538 -2.3186,9.0725 -0.7824,-0.004 -1.5567,-0.008 -2.3268,-0.0124 -0.7824,-3.0022 -1.4207,-6.0456 -2.3309,-9.0107 0.0493,3.0064 0.0206,6.0168 0.0247,9.0231 -0.766,-0.008 -1.5155,-0.008 -2.265,-0.0124 0,-3.9617 -0.004,-7.9193 0.004,-11.881 z"/>
  <path id="path42" style="fill:#231f1f;fill-rule:evenodd" d="m 108.3968,458.983 c 1.1613,-1.2767 2.405,-2.4751 3.6488,-3.6693 5.0242,5.539 10.5467,10.6127 16.3329,15.3403 -1.5938,0.9514 -3.2163,1.8451 -4.8266,2.7675 -2.7263,-2.4133 -5.4814,-4.7978 -8.1541,-7.2686 -2.4956,-2.228 -4.6248,-4.8224 -7.001,-7.1699 z"/>
  <path id="path44" style="fill:#ee4f31;fill-rule:evenodd" d="m 128.922,464.345 c 0.869,0.733 1.808,1.5155 3.0352,1.1572 0.9308,0.6589 1.8573,1.326 2.7757,2.0096 7.1451,5.0078 14.9204,9.1178 23.091,12.1901 -0.7701,0.21 -1.5402,0.42 -2.3104,0.6259 -0.0371,-0.1811 -0.1112,-0.5436 -0.1523,-0.7207 -0.313,0.033 -0.6219,0.07 -0.9308,0.1072 -0.7248,-1.0667 -2.0962,-1.2933 -3.2863,-1.4003 -1.1902,0.4448 -1.812,1.6473 -2.5245,2.615 -1.462,-0.5476 -2.6398,-1.5937 -3.9617,-2.3762 -4.1306,-2.3473 -7.8741,-5.2877 -11.6999,-8.0923 -1.4208,-1.0419 -2.4504,-2.5409 -3.9824,-3.4428 -0.4407,-0.3624 -1.0707,-0.5807 -1.3095,-1.1243 0.0823,-0.6918 0.8359,-1.0543 1.2559,-1.5484 z"/>
  <path id="path46" style="fill:#ee3a26;fill-rule:evenodd" d="m 190.0985,464.2626 c 0.4653,0.6301 0.8772,1.2932 1.256,1.985 0.1112,-0.206 0.3377,-0.6177 0.453,-0.8236 1.5567,5.2753 2.6481,11.0615 0.8154,16.4111 -1.3384,4.1636 -4.7812,7.4994 -8.9366,8.8212 -5.6831,1.7914 -11.7904,0.6879 -17.3541,-1.0171 0.5806,-0.1936 1.1654,-0.3913 1.7502,-0.5806 -0.6795,-0.4491 -1.3426,-0.9145 -1.9933,-1.4002 0.6672,-0.6714 1.0296,-1.5486 1.5033,-2.3474 0.5435,-0.585 1.1613,-1.0956 1.746,-1.6351 3.6818,0.5477 7.1946,-1.0789 10.3409,-2.7963 2.0756,-1.0583 3.0434,-3.2657 4.6866,-4.7976 0.1976,-0.5766 0.383,-1.1655 0.7043,-1.6885 -0.0453,-1.5402 0.0246,-3.0764 0.1235,-4.6124 0.4406,0.1399 0.8812,0.2758 1.326,0.42 0.0906,-0.1359 0.2677,-0.4036 0.3584,-0.5354 -0.4119,-0.8072 -1.0709,-1.7626 -0.2142,-2.5121 0.0988,0.2347 0.3005,0.7083 0.3994,0.9431 0.6877,-0.3912 1.4249,-0.6836 2.1991,-0.8566 -0.2347,-0.5724 -0.4405,-1.1532 -0.6012,-1.7462 0.3707,0.2018 0.7371,0.4078 1.1077,0.6178 0.1072,-0.6178 0.2143,-1.2355 0.3296,-1.8491 z"/>
  <path id="path48" style="fill:#ef5032;fill-rule:evenodd" d="m 111.1189,469.5669 c 1.1984,-1.3837 2.3763,-3.0105 4.2789,-3.414 2.6727,2.4708 5.4278,4.8553 8.1541,7.2686 4.4971,4.0112 9.3361,7.6147 14.2367,11.107 0.4201,0.49 0.8113,1.009 1.2067,1.5238 -0.0659,0.1563 -0.1935,0.4694 -0.2595,0.6259 -0.63,-0.2347 -1.2519,-0.4859 -1.8737,-0.7373 0.1194,-0.1442 0.3623,-0.4407 0.4817,-0.5847 -0.56,-0.0659 -1.1448,-0.3253 -1.6966,-0.2059 -1.2973,0.8936 -2.5575,1.8697 -3.6447,3.0187 0.6013,0.9719 1.8327,0.2264 2.5533,0.8978 0.0412,0.8112 -0.6053,1.3547 -1.0707,1.9313 -2.3927,-1.8325 -4.7895,-3.6858 -7.0134,-5.712 0.3871,0.103 0.7742,0.2018 1.1655,0.2926 -1.9561,-2.2775 -4.5382,-3.9042 -6.651,-6.0334 -2.1991,-2.1991 -4.2376,-4.5794 -6.7168,-6.4861 -1.2766,-0.9431 -2.0839,-2.3433 -3.1505,-3.4923 z"/>
  <path id="path50" style="fill:#d5685e;fill-rule:evenodd" d="m 200.3158,474.0722 c 1.0996,0.7949 1.7996,1.9891 2.5657,3.0846 2.8416,4.4229 4.6288,9.4966 5.4978,14.6692 0.2265,3.8793 0.6631,8.0551 -1.079,11.6709 -0.0824,-1.8819 0.972,-3.5786 0.8813,-5.4606 0.346,-6.4904 -1.5732,-12.9478 -4.596,-18.6433 -0.6383,-1.1572 -1.2271,-2.4133 -2.3638,-3.167 -0.2307,1.7626 -0.1029,3.5376 0.1194,5.292 0.206,5.0037 -1.3424,10.1184 -4.5588,13.9937 -2.7469,2.9486 -6.6181,4.7566 -10.5592,5.4114 -3.4016,1.0419 -7.0298,0.4612 -10.4809,-0.004 -5.5678,-0.5807 -10.9668,-2.2238 -16.16,-4.2624 -1.7872,-0.972 -4.0111,-1.1984 -5.4525,-2.7304 5.9756,2.3679 11.9635,4.913 18.3386,6.025 6.3584,1.1613 13.3183,1.6761 19.2567,-1.359 4.6825,-2.1744 7.7382,-6.9228 8.7266,-11.8854 1.0173,-4.1635 0.0989,-8.4382 -0.1359,-12.6347 z"/>
  <path id="path52" style="fill:#ef3125;fill-rule:evenodd" d="m 201.2218,476.226 c 1.1367,0.7537 1.7255,2.0098 2.3638,3.167 3.0228,5.6955 4.942,12.1529 4.596,18.6433 0.0907,1.882 -0.9637,3.5787 -0.8813,5.4606 -1.4661,4.1595 -4.8266,7.5818 -8.8913,9.2703 -4.9048,2.0715 -10.3737,2.2484 -15.6039,1.7627 -11.8071,-1.3838 -22.811,-6.4245 -32.983,-12.3548 0.593,0.1152 1.1902,0.2099 1.7915,0.3005 -0.2636,-0.4529 -0.523,-0.8976 -0.7825,-1.3466 0.28,-0.1236 0.8401,-0.3747 1.1243,-0.4982 -0.8648,-0.486 -1.8532,-0.6013 -2.821,-0.7085 1.046,-1.0541 1.8821,-2.2938 2.9239,-3.3439 1.0708,-0.004 2.0303,0.5847 3.0393,0.8771 0.1936,-0.6013 0.313,-1.2272 0.3542,-1.8574 0.6795,0.2884 1.2149,0.7786 1.7049,1.3139 0.7948,0.3953 1.6638,0.0164 2.4256,-0.2553 5.1932,2.0386 10.5922,3.6817 16.16,4.2624 3.4511,0.4652 7.0793,1.0459 10.4809,0.004 3.9411,-0.6548 7.8123,-2.4628 10.5592,-5.4114 3.2164,-3.8753 4.7648,-8.99 4.5588,-13.9937 -0.2223,-1.7544 -0.3501,-3.5294 -0.1194,-5.292 z"/>
  <path id="path54" style="fill:#ee452c;fill-rule:evenodd" d="m 137.7886,484.5285 c 5.2137,3.5251 10.7157,6.6138 16.3412,9.3978 1.4414,1.532 3.6653,1.7584 5.4525,2.7304 -0.7618,0.2717 -1.6308,0.6506 -2.4256,0.2553 -0.49,-0.5353 -1.0254,-1.0255 -1.7049,-1.3139 -0.0412,0.6302 -0.1606,1.2561 -0.3542,1.8574 -1.009,-0.2924 -1.9685,-0.8812 -3.0393,-0.8771 -1.0418,1.0501 -1.8779,2.2898 -2.9239,3.3439 0.9678,0.1072 1.9562,0.2225 2.821,0.7085 -0.2842,0.1235 -0.8443,0.3746 -1.1243,0.4982 0.2595,0.449 0.5189,0.8937 0.7825,1.3466 -0.6013,-0.0906 -1.1985,-0.1853 -1.7915,-0.3005 -5.679,-3.3563 -11.1233,-7.1245 -16.337,-11.177 0.4654,-0.5766 1.1119,-1.1201 1.0707,-1.9313 -0.7206,-0.6714 -1.952,0.0741 -2.5533,-0.8978 1.0872,-1.149 2.3474,-2.1251 3.6447,-3.0187 0.5518,-0.1194 1.1366,0.14 1.6966,0.2059 -0.1194,0.144 -0.3623,0.4405 -0.4817,0.5847 0.6218,0.2514 1.2437,0.5026 1.8737,0.7373 0.066,-0.1565 0.1936,-0.4696 0.2595,-0.6259 -0.3954,-0.5148 -0.7866,-1.0338 -1.2067,-1.5238 z"/>
</svg>